<svg id="Layer_1" data-name="Layer 1" xmlns="http://www.w3.org/2000/svg" viewBox="0 0 283.46 283.46"><defs><style>.cls-1{fill:#00ac5b;}.cls-2{fill:#fff;}.cls-3{fill:#ef3829;}</style></defs><title>_</title><rect class="cls-1" width="283.46" height="283.46"/><path class="cls-2" d="M132.66,154.77v-.12c-11.13-.16-25.79-.53-37.5-1.37a119.23,119.23,0,0,1-16-2.21,37.6,37.6,0,0,1-4-1.09,16.21,16.21,0,0,1-2.87-1.32l-.09-.06a11.22,11.22,0,0,1-2.33-2,10.27,10.27,0,0,1-1.57-2.53,14.48,14.48,0,0,1-.93-6.34,22.76,22.76,0,0,1,.34-2.9c.26-1.51.56-2.66.57-2.71L78.5,90.92s.32-1.38.88-3.19A48.56,48.56,0,0,1,81.06,83a38.59,38.59,0,0,1,2.74-5.26A30.88,30.88,0,0,1,94.9,67.41c10.79-5.93,25.42-8.82,44.74-8.82l2.33,0h.17l3.23,0,3.28,0h.22l2.29,0c19.31,0,34,2.89,44.75,8.82a30.86,30.86,0,0,1,5.69,4,31.26,31.26,0,0,1,5.4,6.31A37.53,37.53,0,0,1,209.73,83a46.58,46.58,0,0,1,1.69,4.72c.55,1.8.87,3.14.89,3.2l10.22,41.2s.3,1.17.55,2.68a20.31,20.31,0,0,1,.34,2.89,14.23,14.23,0,0,1-.91,6.3,10.72,10.72,0,0,1-1.58,2.57,11.51,11.51,0,0,1-2.34,2l-.09.06a15.63,15.63,0,0,1-2.88,1.32,38.12,38.12,0,0,1-4,1.09,121.17,121.17,0,0,1-16,2.21c-11.73.84-26.41,1.21-37.54,1.37v.12Z"/><path class="cls-3" d="M215.7,136.84c-.53,1-1.41,2.95-11.74,4.49-4.07.6-9.61,1.17-17.18,1.64-10.57.65-22.87.83-31.79.87v0H135.81v0c-8.93,0-21.23-.22-31.79-.87-7.57-.47-13.11-1-17.18-1.64-10.33-1.54-11.22-3.46-11.75-4.49-1.34-2.66-.3-6.38-.3-6.38l7.67-31.28a35.82,35.82,0,0,1,1.84-5.32,21.6,21.6,0,0,1,8.6-9.57c10-6.51,30.38-8.36,46.84-8.32l5.63,0h.06l5.63,0c16.46,0,36.86,1.81,46.83,8.32a25.35,25.35,0,0,1,5.38,4.53,24.33,24.33,0,0,1,3.22,5,36.37,36.37,0,0,1,1.85,5.32L216,130.46s1,3.72-.3,6.38m4.94,1a18.22,18.22,0,0,0-.3-2.54c-.24-1.4-.52-2.47-.52-2.47L209.6,91.59s-.32-1.3-.85-3a42.09,42.09,0,0,0-1.58-4.43,35.35,35.35,0,0,0-2.52-4.85,28.6,28.6,0,0,0-4.91-5.74,27.44,27.44,0,0,0-5.18-3.66c-9.92-5.46-24.1-8.72-45.7-8.47-.11,0-1.71,0-3.43,0h-.06c-1.73,0-3.32,0-3.43,0-21.6-.25-35.78,3-45.71,8.47a27.37,27.37,0,0,0-5.17,3.66,28,28,0,0,0-4.91,5.74,34.27,34.27,0,0,0-2.52,4.85A45.53,45.53,0,0,0,82,88.54c-.53,1.75-.84,3-.84,3L71,132.81s-.28,1.07-.52,2.47a19.82,19.82,0,0,0-.31,2.54,11.94,11.94,0,0,0,.7,5.1A7.42,7.42,0,0,0,72,144.76a8.42,8.42,0,0,0,1.76,1.52,13.35,13.35,0,0,0,2.37,1.08,36.24,36.24,0,0,0,3.68,1,119.13,119.13,0,0,0,15.57,2.15c12.62.91,29,1.27,40.18,1.4V152h19.71v-.08c11.18-.13,27.56-.49,40.19-1.4A118.91,118.91,0,0,0,211,148.35a36.26,36.26,0,0,0,3.69-1,14,14,0,0,0,2.37-1.08,8.42,8.42,0,0,0,1.76-1.52,7.74,7.74,0,0,0,1.13-1.84,11.78,11.78,0,0,0,.69-5.1"/><path class="cls-2" d="M123.88,92.28l.34-2.19c0-.26,4.45-25.9,36.56-25.9a76.28,76.28,0,0,1,13.92,1.39c5.28,1,13.24,2.5,20.47,2.5,9.22,0,14.94-2.33,17.48-7.13L215.78,55l2,6.39c.26.8,6,19.91-3.51,35.9-5.83,9.76-16,16.11-30.34,18.88l-.81.15Z"/><path class="cls-1" d="M127,90.53s4.75-30.21,47.21-22.21c12.6,2.38,34.35,6.36,40.92-6.07,0,0,13.27,42.53-31.72,51.22Z"/><path class="cls-2" d="M209.93,72.56s-5.84,15.67-29.28,7.52a45.94,45.94,0,0,0-15.59-2.63c-.61,0-1.23,0-1.85,0a32.3,32.3,0,0,0-21.83,8.47l-.39-.3a30.49,30.49,0,1,0-22.39,54.64l.15.79a28.38,28.38,0,0,0,55.53.81l.37-1.64a32.4,32.4,0,0,0,11.73-53c22.41,1.83,23.55-14.59,23.55-14.59"/><path class="cls-3" d="M122.77,140.5c-.43,0-.86,0-1.28,0a25.6,25.6,0,0,0,50.08.72,32.8,32.8,0,0,1-30-7.17,30.42,30.42,0,0,1-18.8,6.48"/><path class="cls-3" d="M95.05,110a27.69,27.69,0,0,0,44.19,22.26,33.19,33.19,0,0,1,.08-44.47A27.71,27.71,0,0,0,95.05,110"/><path class="cls-3" d="M133.57,109.83a29.65,29.65,0,1,0,29.64-29.65,29.65,29.65,0,0,0-29.64,29.65"/><path class="cls-2" d="M168.89,88.15c-.66-2.21-5-2.62-9.68-.92s-8,4.87-7.29,7.08,5,2.63,9.68.93,8-4.87,7.29-7.09m-52.06,2c-4,1.29-6.87,3.89-6.38,5.82s4.14,2.45,8.15,1.16,6.87-3.89,6.38-5.82-4.14-2.45-8.15-1.16"/><path class="cls-2" d="M148.52,203.92c-.16-.74-.4-1.9-.66-3.14l-.71-3.46c0-.14-.09-.29-.28-.29a9.27,9.27,0,0,0-1.57.23h-.06l0,.06.06.25c-.65,1.2-3.08,5.26-4.69,7.95l-1.07,1.78v0h0v.15l0,0a6.05,6.05,0,0,0,1.38.2.56.56,0,0,0,.51-.27c.33-.55,1-1.77,1.66-2.87h3.58l.34,1.56c.07.34.14.65.23,1s.18.56.44.56a7.78,7.78,0,0,0,1.51-.18l0,0v0l0-.08v0h0c-.2-.84-.42-1.84-.77-3.45m-4.68-.71.31-.57c.67-1.22,1.15-2.11,1.7-3,.16.69.39,1.89.7,3.58Zm-26,.71c-.16-.74-.4-1.9-.65-3.13s-.52-2.49-.72-3.47c0-.14-.08-.29-.28-.29a9.41,9.41,0,0,0-1.57.23h-.05v.06l.06.25c-.65,1.21-3.09,5.28-4.72,8-.41.7-.77,1.3-1,1.74v0h0v.15l0,0a5.9,5.9,0,0,0,1.38.2.54.54,0,0,0,.5-.27c.29-.47,1-1.63,1.66-2.87h3.58c.15.64.25,1.11.35,1.56s.13.65.22,1,.18.56.45.56a8,8,0,0,0,1.51-.18l0,0v0l0-.08v0h0c-.19-.82-.42-1.82-.77-3.45m-4.67-.71.32-.58c.66-1.21,1.14-2.1,1.68-3,.16.69.39,1.89.7,3.58Zm28.23-6.07v-.06H135.8a16.07,16.07,0,0,1-2.4-.08h0l0,0a2.72,2.72,0,0,0-.71,1,.37.37,0,0,0,0,.31c.05.07.16.1.34.1h2.91l-1.7,8.93a.34.34,0,0,0,.05.26c0,.06.14.08.28.08a7.7,7.7,0,0,0,1.55-.11h0v0c0-.29.11-.81.35-2.05l1.34-7.07h2.58a1.36,1.36,0,0,0,1.05-1.3m-11.86,0c-.27,0-.42.11-.48.49l-.85,4.64,0,.13c-.14.74-.25,1.38-.35,2.25a26.12,26.12,0,0,0-1.06-2.39l-.81-1.69c-.67-1.4-1.3-2.73-1.55-3.18A.55.55,0,0,0,124,197c-.23,0-1.31.08-1.64.12h0v0l0,.25v0h0l.13.33a.82.82,0,0,1,.06.51c-.17.83-.33,1.67-.5,2.51-.44,2.24-.9,4.56-1.38,6.82v.06H121a9.34,9.34,0,0,0,1,0c.25,0,.38-.11.46-.5l.8-4.52c.16-.85.3-1.68.48-3,.33.94.64,1.66,1,2.55l.16.35c.92,2,1.67,3.53,2.21,4.63l.17.34c.12.23.22.3.42.3a3.7,3.7,0,0,0,1.16-.26h0v0c.61-3.65,1.67-8.89,2-10.42l0-.06h-.07c-.3,0-.81,0-1.27.06m53.91-.06a15.62,15.62,0,0,0-1.56.13h0v0c0,.25-.08.48-.12.72-.07.48-.15,1-.24,1.45l-1.48,8a.34.34,0,0,0,0,.29.35.35,0,0,0,.26.08,12,12,0,0,0,1.57-.1h0v0c0-.13,0-.28.07-.46.06-.37.13-.86.27-1.61l1.39-7.43c.11-.62.11-.85,0-1a.26.26,0,0,0-.21-.08m-24.31,2.89a2.73,2.73,0,0,0-.73-2,3.84,3.84,0,0,0-2.8-.92,10.9,10.9,0,0,0-3.07.44h0v0l-.35.91v0l0,0,.13.17v0h0l.11,0a6.18,6.18,0,0,1,.68-.12c0,.27-.1.61-.21,1.24l-1,4.92c-.31,1.56-.51,2.5-.64,3l0,.07h.49c.4,0,.73,0,1,0a.53.53,0,0,0,.57-.51l.75-3.8h.23l.34,0h0c.13,0,.22.07.3.24.69,1.57,1.15,2.55,1.49,3.19.43.81.84,1,1.42,1a3.31,3.31,0,0,0,1.11-.15h0v0l0-.06v0a11.09,11.09,0,0,1-1-1.78c-.51-1-1-2-1.27-2.7a3.28,3.28,0,0,0,2.42-3.06m-3.23,1.9a4.3,4.3,0,0,1-1.6.3l.71-3.79a4.18,4.18,0,0,1,.52,0,1.66,1.66,0,0,1,1.21.44,1.63,1.63,0,0,1,.41,1.21,2,2,0,0,1-1.25,1.86m48.1,5.55c-.2-.83-.43-1.83-.77-3.45-.17-.74-.41-1.9-.66-3.13s-.51-2.49-.72-3.47c0-.14-.08-.29-.28-.29a9.41,9.41,0,0,0-1.57.23h0v.06l.06.25c-.65,1.21-3.1,5.3-4.72,8l-1,1.72v0h0v.15l0,0a5.9,5.9,0,0,0,1.38.2.53.53,0,0,0,.5-.27c.28-.47,1-1.63,1.66-2.87h3.58l.34,1.51c.07.35.14.68.23,1.07s.18.56.45.56a7.26,7.26,0,0,0,1.51-.19h0v-.13Zm-5.45-4.16.3-.55c.67-1.23,1.16-2.13,1.7-3,.16.69.39,1.89.7,3.58ZM192,196.83a6.48,6.48,0,0,0-6.6,6.46c0,3,1.61,4.57,4.54,4.57a5.53,5.53,0,0,0,2.56-.53,2.11,2.11,0,0,0,.47-1.27v0h0l-.05,0,0,0,0,0a6.49,6.49,0,0,1-2.41.49c-1.87,0-3-1.2-3-3.2a4.72,4.72,0,0,1,4.48-5,3.65,3.65,0,0,1,1.35.23.81.81,0,0,0,.25,0,.51.51,0,0,0,.45-.25,2,2,0,0,0,.3-.79v0h0a3.72,3.72,0,0,0-2.26-.57M171.8,197h0l0,0a2.51,2.51,0,0,0-.71,1,.34.34,0,0,0,0,.31c.05.07.15.1.34.1h2.91l-1.7,8.93a.3.3,0,0,0,0,.26c.05.06.14.08.28.08a7.76,7.76,0,0,0,1.55-.11h0v0c0-.29.11-.82.34-2.05l1.35-7.07h2.57a1.36,1.36,0,0,0,1.06-1.3v-.06H174.2a16,16,0,0,1-2.4-.08m-4.35-.17a6.48,6.48,0,0,0-6.6,6.46c0,3,1.61,4.57,4.53,4.57a5.58,5.58,0,0,0,2.57-.53,2.11,2.11,0,0,0,.47-1.27v0l0,0-.06,0,0,0,0,0a6.4,6.4,0,0,1-2.4.49c-1.87,0-3-1.2-3-3.2a4.72,4.72,0,0,1,4.48-5,3.59,3.59,0,0,1,1.34.23.82.82,0,0,0,.26,0,.53.53,0,0,0,.45-.25,2,2,0,0,0,.29-.79v0h0a3.78,3.78,0,0,0-2.26-.57"/><path class="cls-2" d="M209,185.31c-.91,2.49-3,4.67-4.54,4.67-1.22,0-1.23-1.65-1.15-2.26a66.23,66.23,0,0,1,1.63-7.51,18,18,0,0,1,.75-2.12,17.4,17.4,0,0,0-3.58-.73c-4-.38-10.11.4-11.83,8.25l0,.1c-1.21,1.94-2.94,4.19-3.87,4.19s-.07-2.89.37-4.4a21.1,21.1,0,0,0,1.06-4.76c0-1.75-1.15-2.8-3.08-2.8s-4,1.92-4.79,2.67l.64-2.6-6.62.16-.33,1.35c.11,0,1.53-.12,1.88.33.19.24.18.74,0,1.5l-.77,3.25c-.37,1.09-2.73,5.38-4.56,5.38h0c-1.21,0-1.23-1.65-1.15-2.26a70.93,70.93,0,0,1,1.63-7.51,18,18,0,0,1,.75-2.12,17.4,17.4,0,0,0-3.58-.73c-3.9-.37-9.83.36-11.71,7.73h0c-.07.16-2,3.88-3.68,3.88-.74,0-.89-.9-.9-1.64a16.63,16.63,0,0,1,1.36-4.89,15.46,15.46,0,0,1,2.71-4.36H145a12.78,12.78,0,0,1-.29,3.46c-.7,3.14-2.49,8.43-4.78,8.43-1.22,0-1.23-1.65-1.15-2.26a66.23,66.23,0,0,1,1.63-7.51,18,18,0,0,1,.75-2.12,17.4,17.4,0,0,0-3.59-.73c-4-.38-10.1.4-11.83,8.25-.83,1.43-2.74,3.87-3.76,3.87s-.52-1.24-.32-2.07c.58-2.43,2.41-9.32,2.41-9.32h-4.31l-2.12,7.9c-.34.53-2.74,3.61-3.64,3.61s-.46-1.59-.11-2.93l2.26-8.65-6.43.15-.32,1.29s1.2,0,1.49.36.2.65.07,1.34-2.21,7.89-2.17,9.45a2.63,2.63,0,0,0,2.78,2.62c2.19,0,4.62-2.82,5.41-3.82,0,.16-.42,3.82,2.53,3.82,2.68,0,5.37-3.58,6.1-4.63.13,1.11.84,4.63,4.6,4.63a5.72,5.72,0,0,0,4.67-2.83,3.86,3.86,0,0,0,3.44,2.83c5.43.35,8.07-9.89,8.33-11h2.79c-.48.82-2.37,4.17-2.37,7.12,0,2.42,1.14,3.91,3,3.91,2.84,0,5.06-3.45,5.71-4.57l0-.06c.13,1.11.84,4.63,4.6,4.63a5.68,5.68,0,0,0,4.66-2.83,3.7,3.7,0,0,0,3.45,2.83h0c2.36,0,3.9-1.73,5.07-3.62l-.83,3.5h4.13s2.25-9.39,2.26-9.46c.69-.73,2.6-2.58,3.46-2.58.26,0,.56.09.56.85a17.15,17.15,0,0,1-.76,3.21,22,22,0,0,0-1,4.83c0,2.08,1,3.27,2.79,3.27,2.82,0,5-3.09,6-4.42l0,0c.18,1.28,1,4.45,4.57,4.45a5.68,5.68,0,0,0,4.67-2.83,3.69,3.69,0,0,0,3.45,2.83c3.63,0,5.91-4,7.15-7.2Zm-72.36-5.2c-1.77,5.75-1.73,10.09-5.15,10.09-2.05,0-2.19-2.58-1.31-5.63,1.79-6.17,6.81-4.48,6.46-4.46m30.18,0c-1.77,5.75-1.73,10.09-5.15,10.09-2.05,0-2.19-2.58-1.3-5.63,1.78-6.17,6.81-4.48,6.45-4.46m34.33,0c-1.77,5.75-1.73,10.09-5.16,10.09-2,0-2.18-2.58-1.3-5.63,1.8-6.17,6.82-4.48,6.46-4.46"/><path class="cls-2" d="M99.41,174.42c3.94-.76,4.1-3.73,4.1-3.95,0-3.22-2.57-5.39-6.4-5.39-6.73,0-12.69,8-12.69,15.41,0,4,2.6,8.12,7.58,8.14h0c9.67,0,11.1-10.57,11.1-10.57l5.3-.09s-.25.75-.54,1.82c-.76,2.8-2.13,7.91-2.13,7.91-1.61,6-5.24,20.13-18,20.13-3.61,0-9-2.24-9-7.85,0-5.2,6.41-4.11,7.09-4-3.09,2.57-3.19,9.39,2.64,9.39,2.57,0,7.59-2,10.07-10.7,0,0,1.85-6.41,2.22-7.68-1.22,1.74-5,6.19-11.2,6.19-5.84,0-10.07-4.51-10.07-10.73,0-11.59,10.61-21.18,20.18-21.18,4.67,0,8.64,3.19,8.42,7.08-.37,6.53-7.08,7.16-9.22,7.12Z"/><path class="cls-2" d="M195.94,176.34s.45-5.59,8.1-5.51a4.25,4.25,0,0,1-2.91,3.81c-1.3.44-3,.12-5.19,1.7"/></svg>